# Wavefront OBJ file automatically generated by Tiled2Unity

# Vertices (Count = 225)
v 0 -1.26 0
v -1.26 -1.26 0
v -1.26 0 0
v 0 0 0
v -2.52 -1.26 0
v -2.52 0 0
v -3.78 -1.26 0
v -3.78 0 0
v -5.04 -1.26 0
v -5.04 0 0
v -6.3 -1.26 0
v -6.3 0 0
v -7.56 -1.26 0
v -7.56 0 0
v -8.82 -1.26 0
v -8.82 0 0
v -10.08 -1.26 0
v -10.08 0 0
v -11.34 -1.26 0
v -11.34 0 0
v -12.6 -1.26 0
v -12.6 0 0
v -13.86 -1.26 0
v -13.86 0 0
v -15.12 -1.26 0
v -15.12 0 0
v -16.38 -1.26 0
v -16.38 0 0
v -17.64 -1.26 0
v -17.64 0 0
v 0 -2.52 0
v -1.26 -2.52 0
v -2.52 -2.52 0
v -3.78 -2.52 0
v -5.04 -2.52 0
v -6.3 -2.52 0
v -7.56 -2.52 0
v -8.82 -2.52 0
v -10.08 -2.52 0
v -11.34 -2.52 0
v -12.6 -2.52 0
v -13.86 -2.52 0
v -15.12 -2.52 0
v -16.38 -2.52 0
v -17.64 -2.52 0
v 0 -3.78 0
v -1.26 -3.78 0
v -2.52 -3.78 0
v -3.78 -3.78 0
v -5.04 -3.78 0
v -6.3 -3.78 0
v -7.56 -3.78 0
v -8.82 -3.78 0
v -10.08 -3.78 0
v -11.34 -3.78 0
v -12.6 -3.78 0
v -13.86 -3.78 0
v -15.12 -3.78 0
v -16.38 -3.78 0
v -17.64 -3.78 0
v 0 -5.04 0
v -1.26 -5.04 0
v -2.52 -5.04 0
v -3.78 -5.04 0
v -5.04 -5.04 0
v -6.3 -5.04 0
v -7.56 -5.04 0
v -8.82 -5.04 0
v -10.08 -5.04 0
v -11.34 -5.04 0
v -12.6 -5.04 0
v -13.86 -5.04 0
v -15.12 -5.04 0
v -16.38 -5.04 0
v -17.64 -5.04 0
v 0 -6.3 0
v -1.26 -6.3 0
v -2.52 -6.3 0
v -3.78 -6.3 0
v -5.04 -6.3 0
v -6.3 -6.3 0
v -7.56 -6.3 0
v -8.82 -6.3 0
v -10.08 -6.3 0
v -11.34 -6.3 0
v -12.6 -6.3 0
v -13.86 -6.3 0
v -15.12 -6.3 0
v -16.38 -6.3 0
v -17.64 -6.3 0
v 0 -7.56 0
v -1.26 -7.56 0
v -2.52 -7.56 0
v -3.78 -7.56 0
v -5.04 -7.56 0
v -6.3 -7.56 0
v -7.56 -7.56 0
v -8.82 -7.56 0
v -10.08 -7.56 0
v -11.34 -7.56 0
v -12.6 -7.56 0
v -13.86 -7.56 0
v -15.12 -7.56 0
v -16.38 -7.56 0
v -17.64 -7.56 0
v 0 -8.82 0
v -1.26 -8.82 0
v -2.52 -8.82 0
v -3.78 -8.82 0
v -5.04 -8.82 0
v -6.3 -8.82 0
v -7.56 -8.82 0
v -8.82 -8.82 0
v -10.08 -8.82 0
v -11.34 -8.82 0
v -12.6 -8.82 0
v -13.86 -8.82 0
v -15.12 -8.82 0
v -16.38 -8.82 0
v -17.64 -8.82 0
v 0 -10.08 0
v -1.26 -10.08 0
v -2.52 -10.08 0
v -3.78 -10.08 0
v -5.04 -10.08 0
v -6.3 -10.08 0
v -7.56 -10.08 0
v -8.82 -10.08 0
v -10.08 -10.08 0
v -11.34 -10.08 0
v -12.6 -10.08 0
v -13.86 -10.08 0
v -15.12 -10.08 0
v -16.38 -10.08 0
v -17.64 -10.08 0
v 0 -11.34 0
v -1.26 -11.34 0
v -2.52 -11.34 0
v -3.78 -11.34 0
v -5.04 -11.34 0
v -6.3 -11.34 0
v -7.56 -11.34 0
v -8.82 -11.34 0
v -10.08 -11.34 0
v -11.34 -11.34 0
v -12.6 -11.34 0
v -13.86 -11.34 0
v -15.12 -11.34 0
v -16.38 -11.34 0
v -17.64 -11.34 0
v 0 -12.6 0
v -1.26 -12.6 0
v -2.52 -12.6 0
v -3.78 -12.6 0
v -5.04 -12.6 0
v -6.3 -12.6 0
v -7.56 -12.6 0
v -8.82 -12.6 0
v -10.08 -12.6 0
v -11.34 -12.6 0
v -12.6 -12.6 0
v -13.86 -12.6 0
v -15.12 -12.6 0
v -16.38 -12.6 0
v -17.64 -12.6 0
v 0 -13.86 0
v -1.26 -13.86 0
v -2.52 -13.86 0
v -3.78 -13.86 0
v -5.04 -13.86 0
v -6.3 -13.86 0
v -7.56 -13.86 0
v -8.82 -13.86 0
v -10.08 -13.86 0
v -11.34 -13.86 0
v -12.6 -13.86 0
v -13.86 -13.86 0
v -15.12 -13.86 0
v -16.38 -13.86 0
v -17.64 -13.86 0
v 0 -15.12 0
v -1.26 -15.12 0
v -2.52 -15.12 0
v -3.78 -15.12 0
v -5.04 -15.12 0
v -6.3 -15.12 0
v -7.56 -15.12 0
v -8.82 -15.12 0
v -10.08 -15.12 0
v -11.34 -15.12 0
v -12.6 -15.12 0
v -13.86 -15.12 0
v -15.12 -15.12 0
v -16.38 -15.12 0
v -17.64 -15.12 0
v 0 -16.38 0
v -1.26 -16.38 0
v -2.52 -16.38 0
v -3.78 -16.38 0
v -5.04 -16.38 0
v -6.3 -16.38 0
v -7.56 -16.38 0
v -8.82 -16.38 0
v -10.08 -16.38 0
v -11.34 -16.38 0
v -12.6 -16.38 0
v -13.86 -16.38 0
v -15.12 -16.38 0
v -16.38 -16.38 0
v -17.64 -16.38 0
v 0 -17.64 0
v -1.26 -17.64 0
v -2.52 -17.64 0
v -3.78 -17.64 0
v -5.04 -17.64 0
v -6.3 -17.64 0
v -7.56 -17.64 0
v -8.82 -17.64 0
v -10.08 -17.64 0
v -11.34 -17.64 0
v -12.6 -17.64 0
v -13.86 -17.64 0
v -15.12 -17.64 0
v -16.38 -17.64 0
v -17.64 -17.64 0

# Texture cooridinates (Count = 20)
vt 0.0001220703 0.7501221
vt 0.1248779 0.7501221
vt 0.1248779 0.9998779
vt 0.0001220703 0.9998779
vt 0.0001220703 0.0001220703
vt 0.1248779 0.0001220703
vt 0.1248779 0.2498779
vt 0.0001220703 0.2498779
vt 0.1251221 0.0001220703
vt 0.2498779 0.0001220703
vt 0.2498779 0.2498779
vt 0.1251221 0.2498779
vt 0.3751221 0.0001220703
vt 0.4998779 0.0001220703
vt 0.4998779 0.2498779
vt 0.3751221 0.2498779
vt 0.6251221 0.0001220703
vt 0.7498779 0.0001220703
vt 0.7498779 0.2498779
vt 0.6251221 0.2498779

# Normal
vn 0 0 -1

# Groups (Count = 2)

g mesh_0001
f 1/1/1 2/2/1 3/3/1 4/4/1
f 2/1/1 5/2/1 6/3/1 3/4/1
f 5/1/1 7/2/1 8/3/1 6/4/1
f 7/1/1 9/2/1 10/3/1 8/4/1
f 9/1/1 11/2/1 12/3/1 10/4/1
f 11/1/1 13/2/1 14/3/1 12/4/1
f 13/1/1 15/2/1 16/3/1 14/4/1
f 15/1/1 17/2/1 18/3/1 16/4/1
f 17/1/1 19/2/1 20/3/1 18/4/1
f 19/1/1 21/2/1 22/3/1 20/4/1
f 21/1/1 23/2/1 24/3/1 22/4/1
f 23/1/1 25/2/1 26/3/1 24/4/1
f 25/1/1 27/2/1 28/3/1 26/4/1
f 27/1/1 29/2/1 30/3/1 28/4/1
f 31/1/1 32/2/1 2/3/1 1/4/1
f 32/1/1 33/2/1 5/3/1 2/4/1
f 33/1/1 34/2/1 7/3/1 5/4/1
f 34/1/1 35/2/1 9/3/1 7/4/1
f 35/1/1 36/2/1 11/3/1 9/4/1
f 36/1/1 37/2/1 13/3/1 11/4/1
f 37/1/1 38/2/1 15/3/1 13/4/1
f 38/1/1 39/2/1 17/3/1 15/4/1
f 39/1/1 40/2/1 19/3/1 17/4/1
f 40/1/1 41/2/1 21/3/1 19/4/1
f 41/1/1 42/2/1 23/3/1 21/4/1
f 42/1/1 43/2/1 25/3/1 23/4/1
f 43/1/1 44/2/1 27/3/1 25/4/1
f 44/1/1 45/2/1 29/3/1 27/4/1
f 46/1/1 47/2/1 32/3/1 31/4/1
f 47/1/1 48/2/1 33/3/1 32/4/1
f 48/1/1 49/2/1 34/3/1 33/4/1
f 49/1/1 50/2/1 35/3/1 34/4/1
f 50/1/1 51/2/1 36/3/1 35/4/1
f 51/1/1 52/2/1 37/3/1 36/4/1
f 52/1/1 53/2/1 38/3/1 37/4/1
f 53/1/1 54/2/1 39/3/1 38/4/1
f 54/1/1 55/2/1 40/3/1 39/4/1
f 55/1/1 56/2/1 41/3/1 40/4/1
f 56/1/1 57/2/1 42/3/1 41/4/1
f 57/1/1 58/2/1 43/3/1 42/4/1
f 58/1/1 59/2/1 44/3/1 43/4/1
f 59/1/1 60/2/1 45/3/1 44/4/1
f 61/1/1 62/2/1 47/3/1 46/4/1
f 62/1/1 63/2/1 48/3/1 47/4/1
f 63/1/1 64/2/1 49/3/1 48/4/1
f 64/1/1 65/2/1 50/3/1 49/4/1
f 65/1/1 66/2/1 51/3/1 50/4/1
f 66/1/1 67/2/1 52/3/1 51/4/1
f 67/1/1 68/2/1 53/3/1 52/4/1
f 68/1/1 69/2/1 54/3/1 53/4/1
f 69/1/1 70/2/1 55/3/1 54/4/1
f 70/1/1 71/2/1 56/3/1 55/4/1
f 71/1/1 72/2/1 57/3/1 56/4/1
f 72/1/1 73/2/1 58/3/1 57/4/1
f 73/1/1 74/2/1 59/3/1 58/4/1
f 74/1/1 75/2/1 60/3/1 59/4/1
f 76/1/1 77/2/1 62/3/1 61/4/1
f 77/1/1 78/2/1 63/3/1 62/4/1
f 78/1/1 79/2/1 64/3/1 63/4/1
f 79/1/1 80/2/1 65/3/1 64/4/1
f 80/1/1 81/2/1 66/3/1 65/4/1
f 81/1/1 82/2/1 67/3/1 66/4/1
f 82/1/1 83/2/1 68/3/1 67/4/1
f 83/1/1 84/2/1 69/3/1 68/4/1
f 84/1/1 85/2/1 70/3/1 69/4/1
f 85/1/1 86/2/1 71/3/1 70/4/1
f 86/1/1 87/2/1 72/3/1 71/4/1
f 87/1/1 88/2/1 73/3/1 72/4/1
f 88/1/1 89/2/1 74/3/1 73/4/1
f 89/1/1 90/2/1 75/3/1 74/4/1
f 91/1/1 92/2/1 77/3/1 76/4/1
f 92/1/1 93/2/1 78/3/1 77/4/1
f 93/1/1 94/2/1 79/3/1 78/4/1
f 94/1/1 95/2/1 80/3/1 79/4/1
f 95/1/1 96/2/1 81/3/1 80/4/1
f 96/1/1 97/2/1 82/3/1 81/4/1
f 97/1/1 98/2/1 83/3/1 82/4/1
f 98/1/1 99/2/1 84/3/1 83/4/1
f 99/1/1 100/2/1 85/3/1 84/4/1
f 100/1/1 101/2/1 86/3/1 85/4/1
f 101/1/1 102/2/1 87/3/1 86/4/1
f 102/1/1 103/2/1 88/3/1 87/4/1
f 103/1/1 104/2/1 89/3/1 88/4/1
f 104/1/1 105/2/1 90/3/1 89/4/1
f 106/1/1 107/2/1 92/3/1 91/4/1
f 107/1/1 108/2/1 93/3/1 92/4/1
f 108/1/1 109/2/1 94/3/1 93/4/1
f 109/1/1 110/2/1 95/3/1 94/4/1
f 110/1/1 111/2/1 96/3/1 95/4/1
f 111/1/1 112/2/1 97/3/1 96/4/1
f 112/1/1 113/2/1 98/3/1 97/4/1
f 113/1/1 114/2/1 99/3/1 98/4/1
f 114/1/1 115/2/1 100/3/1 99/4/1
f 115/1/1 116/2/1 101/3/1 100/4/1
f 116/1/1 117/2/1 102/3/1 101/4/1
f 117/1/1 118/2/1 103/3/1 102/4/1
f 118/1/1 119/2/1 104/3/1 103/4/1
f 119/1/1 120/2/1 105/3/1 104/4/1
f 121/1/1 122/2/1 107/3/1 106/4/1
f 122/1/1 123/2/1 108/3/1 107/4/1
f 123/1/1 124/2/1 109/3/1 108/4/1
f 124/1/1 125/2/1 110/3/1 109/4/1
f 125/1/1 126/2/1 111/3/1 110/4/1
f 126/1/1 127/2/1 112/3/1 111/4/1
f 127/1/1 128/2/1 113/3/1 112/4/1
f 128/1/1 129/2/1 114/3/1 113/4/1
f 129/1/1 130/2/1 115/3/1 114/4/1
f 130/1/1 131/2/1 116/3/1 115/4/1
f 131/1/1 132/2/1 117/3/1 116/4/1
f 132/1/1 133/2/1 118/3/1 117/4/1
f 133/1/1 134/2/1 119/3/1 118/4/1
f 134/1/1 135/2/1 120/3/1 119/4/1
f 136/1/1 137/2/1 122/3/1 121/4/1
f 137/1/1 138/2/1 123/3/1 122/4/1
f 138/1/1 139/2/1 124/3/1 123/4/1
f 139/1/1 140/2/1 125/3/1 124/4/1
f 140/1/1 141/2/1 126/3/1 125/4/1
f 141/1/1 142/2/1 127/3/1 126/4/1
f 142/1/1 143/2/1 128/3/1 127/4/1
f 143/1/1 144/2/1 129/3/1 128/4/1
f 144/1/1 145/2/1 130/3/1 129/4/1
f 145/1/1 146/2/1 131/3/1 130/4/1
f 146/1/1 147/2/1 132/3/1 131/4/1
f 147/1/1 148/2/1 133/3/1 132/4/1
f 148/1/1 149/2/1 134/3/1 133/4/1
f 149/1/1 150/2/1 135/3/1 134/4/1
f 151/1/1 152/2/1 137/3/1 136/4/1
f 152/1/1 153/2/1 138/3/1 137/4/1
f 153/1/1 154/2/1 139/3/1 138/4/1
f 154/1/1 155/2/1 140/3/1 139/4/1
f 155/1/1 156/2/1 141/3/1 140/4/1
f 156/1/1 157/2/1 142/3/1 141/4/1
f 157/1/1 158/2/1 143/3/1 142/4/1
f 158/1/1 159/2/1 144/3/1 143/4/1
f 159/1/1 160/2/1 145/3/1 144/4/1
f 160/1/1 161/2/1 146/3/1 145/4/1
f 161/1/1 162/2/1 147/3/1 146/4/1
f 162/1/1 163/2/1 148/3/1 147/4/1
f 163/1/1 164/2/1 149/3/1 148/4/1
f 164/1/1 165/2/1 150/3/1 149/4/1
f 166/1/1 167/2/1 152/3/1 151/4/1
f 167/1/1 168/2/1 153/3/1 152/4/1
f 168/1/1 169/2/1 154/3/1 153/4/1
f 169/1/1 170/2/1 155/3/1 154/4/1
f 170/1/1 171/2/1 156/3/1 155/4/1
f 171/1/1 172/2/1 157/3/1 156/4/1
f 172/1/1 173/2/1 158/3/1 157/4/1
f 173/1/1 174/2/1 159/3/1 158/4/1
f 174/1/1 175/2/1 160/3/1 159/4/1
f 175/1/1 176/2/1 161/3/1 160/4/1
f 176/1/1 177/2/1 162/3/1 161/4/1
f 177/1/1 178/2/1 163/3/1 162/4/1
f 178/1/1 179/2/1 164/3/1 163/4/1
f 179/1/1 180/2/1 165/3/1 164/4/1
f 181/1/1 182/2/1 167/3/1 166/4/1
f 182/1/1 183/2/1 168/3/1 167/4/1
f 183/1/1 184/2/1 169/3/1 168/4/1
f 184/1/1 185/2/1 170/3/1 169/4/1
f 185/1/1 186/2/1 171/3/1 170/4/1
f 186/1/1 187/2/1 172/3/1 171/4/1
f 187/1/1 188/2/1 173/3/1 172/4/1
f 188/1/1 189/2/1 174/3/1 173/4/1
f 189/1/1 190/2/1 175/3/1 174/4/1
f 190/1/1 191/2/1 176/3/1 175/4/1
f 191/1/1 192/2/1 177/3/1 176/4/1
f 192/1/1 193/2/1 178/3/1 177/4/1
f 193/1/1 194/2/1 179/3/1 178/4/1
f 194/1/1 195/2/1 180/3/1 179/4/1
f 196/1/1 197/2/1 182/3/1 181/4/1
f 197/1/1 198/2/1 183/3/1 182/4/1
f 198/1/1 199/2/1 184/3/1 183/4/1
f 199/1/1 200/2/1 185/3/1 184/4/1
f 200/1/1 201/2/1 186/3/1 185/4/1
f 201/1/1 202/2/1 187/3/1 186/4/1
f 202/1/1 203/2/1 188/3/1 187/4/1
f 203/1/1 204/2/1 189/3/1 188/4/1
f 204/1/1 205/2/1 190/3/1 189/4/1
f 205/1/1 206/2/1 191/3/1 190/4/1
f 206/1/1 207/2/1 192/3/1 191/4/1
f 207/1/1 208/2/1 193/3/1 192/4/1
f 208/1/1 209/2/1 194/3/1 193/4/1
f 209/1/1 210/2/1 195/3/1 194/4/1
f 211/1/1 212/2/1 197/3/1 196/4/1
f 212/1/1 213/2/1 198/3/1 197/4/1
f 213/1/1 214/2/1 199/3/1 198/4/1
f 214/1/1 215/2/1 200/3/1 199/4/1
f 215/1/1 216/2/1 201/3/1 200/4/1
f 216/1/1 217/2/1 202/3/1 201/4/1
f 217/1/1 218/2/1 203/3/1 202/4/1
f 218/1/1 219/2/1 204/3/1 203/4/1
f 219/1/1 220/2/1 205/3/1 204/4/1
f 220/1/1 221/2/1 206/3/1 205/4/1
f 221/1/1 222/2/1 207/3/1 206/4/1
f 222/1/1 223/2/1 208/3/1 207/4/1
f 223/1/1 224/2/1 209/3/1 208/4/1
f 224/1/1 225/2/1 210/3/1 209/4/1

g mesh_0002
f 1/5/1 2/6/1 3/7/1 4/8/1
f 2/9/1 5/10/1 6/11/1 3/12/1
f 5/5/1 7/6/1 8/7/1 6/8/1
f 7/9/1 9/10/1 10/11/1 8/12/1
f 9/5/1 11/6/1 12/7/1 10/8/1
f 11/9/1 13/10/1 14/11/1 12/12/1
f 13/5/1 15/6/1 16/7/1 14/8/1
f 15/9/1 17/10/1 18/11/1 16/12/1
f 17/5/1 19/6/1 20/7/1 18/8/1
f 19/9/1 21/10/1 22/11/1 20/12/1
f 21/5/1 23/6/1 24/7/1 22/8/1
f 23/9/1 25/10/1 26/11/1 24/12/1
f 25/5/1 27/6/1 28/7/1 26/8/1
f 27/9/1 29/10/1 30/11/1 28/12/1
f 31/13/1 32/14/1 2/15/1 1/16/1
f 44/13/1 45/14/1 29/15/1 27/16/1
f 46/17/1 47/18/1 32/19/1 31/20/1
f 59/17/1 60/18/1 45/19/1 44/20/1
f 61/13/1 62/14/1 47/15/1 46/16/1
f 74/13/1 75/14/1 60/15/1 59/16/1
f 76/17/1 77/18/1 62/19/1 61/20/1
f 89/17/1 90/18/1 75/19/1 74/20/1
f 91/13/1 92/14/1 77/15/1 76/16/1
f 104/13/1 105/14/1 90/15/1 89/16/1
f 106/17/1 107/18/1 92/19/1 91/20/1
f 119/17/1 120/18/1 105/19/1 104/20/1
f 121/13/1 122/14/1 107/15/1 106/16/1
f 134/13/1 135/14/1 120/15/1 119/16/1
f 136/17/1 137/18/1 122/19/1 121/20/1
f 149/17/1 150/18/1 135/19/1 134/20/1
f 151/13/1 152/14/1 137/15/1 136/16/1
f 164/13/1 165/14/1 150/15/1 149/16/1
f 166/17/1 167/18/1 152/19/1 151/20/1
f 179/17/1 180/18/1 165/19/1 164/20/1
f 181/13/1 182/14/1 167/15/1 166/16/1
f 194/13/1 195/14/1 180/15/1 179/16/1
f 196/17/1 197/18/1 182/19/1 181/20/1
f 209/17/1 210/18/1 195/19/1 194/20/1
f 211/5/1 212/6/1 197/7/1 196/8/1
f 212/9/1 213/10/1 198/11/1 197/12/1
f 213/5/1 214/6/1 199/7/1 198/8/1
f 214/9/1 215/10/1 200/11/1 199/12/1
f 215/5/1 216/6/1 201/7/1 200/8/1
f 216/9/1 217/10/1 202/11/1 201/12/1
f 217/5/1 218/6/1 203/7/1 202/8/1
f 218/9/1 219/10/1 204/11/1 203/12/1
f 219/5/1 220/6/1 205/7/1 204/8/1
f 220/9/1 221/10/1 206/11/1 205/12/1
f 221/5/1 222/6/1 207/7/1 206/8/1
f 222/9/1 223/10/1 208/11/1 207/12/1
f 223/5/1 224/6/1 209/7/1 208/8/1
f 224/9/1 225/10/1 210/11/1 209/12/1

